# xmcd
#
# Track frame offsets: 
#        150
#        18511
#        29852
#        52616
#        60975
#        83709
#        94108
#        117214
#        143058
#        162052
#        177307
#        186954
#
# Disc length: 2896 seconds
#
# Revision: 0
# Processed by: cddbd v1.5.1PL0 Copyright (c) Steve Scherf et al.
# Submitted via: ExactAudioCopy v0.95a3
#
DISCID=930b4e0c
DTITLE=Guo Brothers - Our Homeland
DYEAR=1995
DGENRE=National Folk
TTITLE0=Our Homeland
TTITLE1=Market Gathering
TTITLE2=Little Boat on the River
TTITLE3=Harvest Time
TTITLE4=Tears beside the Yellow River
TTITLE5=Farmer's Song
TTITLE6=Bow and Arrow Dance
TTITLE7=Love Song
TTITLE8=The Last Dynasty
TTITLE9=Traditional Irish Tune
TTITLE10=First Train though the Village
TTITLE11=Himalayas
EXTD=
EXTT0=
EXTT1=
EXTT2=
EXTT3=
EXTT4=
EXTT5=
EXTT6=
EXTT7=
EXTT8=
EXTT9=
EXTT10=
EXTT11=
PLAYORDER=
